<?xml version="1.0" encoding="UTF-8"?>
<svg version="1.1" xmlns="http://www.w3.org/2000/svg" width="518" height="535">
<path d="M0 0 C170.94 0 341.88 0 518 0 C518 176.55 518 353.1 518 535 C347.06 535 176.12 535 0 535 C0 358.45 0 181.9 0 0 Z " fill="#FEFEFE" transform="translate(0,0)"/>
<path d="M0 0 C9.9 0 19.8 0 30 0 C30.98721084 6.07791945 31.96843964 12.15626653 32.93579102 18.23730469 C33.26519498 20.29740187 33.59777569 22.35699411 33.93383789 24.41601562 C36.03216422 37.28825965 37.60746717 49.95725109 38 63 C38.66 63 39.32 63 40 63 C40.04898438 62.175 40.09796875 61.35 40.1484375 60.5 C41.13188953 45.3073617 43.32687919 30.44881902 46.125 15.5 C46.40536861 13.98315061 46.68531822 12.46622372 46.96484375 10.94921875 C47.63767584 7.29840794 48.31896373 3.64932642 49 0 C57.58 0 66.16 0 75 0 C80.51531755 21.65272816 84.0258978 43.75045032 86 66 C86.10546143 64.96294922 86.21092285 63.92589844 86.31958008 62.85742188 C86.72102101 58.92783172 87.13140239 54.99921386 87.54418945 51.07080078 C87.72004794 49.38582364 87.89363309 47.70060734 88.06469727 46.01513672 C89.05515713 36.27319419 90.27358416 26.68318648 92.2253418 17.08398438 C93.30049929 11.41577304 94.12273964 5.70219235 95 0 C104.57 0 114.14 0 124 0 C122.87600309 11.23996914 122.87600309 11.23996914 121.87109375 15.9140625 C121.64486328 16.98406494 121.41863281 18.05406738 121.18554688 19.15649414 C120.93869141 20.30110107 120.69183594 21.44570801 120.4375 22.625 C119.89310855 25.19892981 119.34995456 27.77309018 118.80859375 30.34765625 C118.66465179 31.03018967 118.52070984 31.71272308 118.37240601 32.41593933 C116.68898773 40.42622282 115.10379585 48.45591519 113.51153564 56.48471069 C110.93986621 69.44416337 108.32788355 82.39286702 105.5625 95.3125 C105.1922168 97.04608765 105.1922168 97.04608765 104.81445312 98.81469727 C103.1315292 106.6054124 103.1315292 106.6054124 102 110 C92.43 110 82.86 110 73 110 C71.89332017 103.88495052 70.78937114 97.76952399 69.69189453 91.65283203 C69.31906624 89.57931585 68.94475926 87.50606489 68.56884766 85.43310547 C66.54546013 74.26940204 64.62503009 63.15045153 63.39013672 51.86914062 C63.16560761 49.06236251 63.16560761 49.06236251 62 47 C61.89977539 47.87809326 61.79955078 48.75618652 61.69628906 49.66088867 C59.38595226 69.81608881 56.84083202 89.9112593 54 110 C44.1 110 34.2 110 24 110 C17.20160698 80.08707072 17.20160698 80.08707072 14.0625 65.3125 C11.86810454 54.99351841 9.62499985 44.68615175 7.34152222 34.38656616 C6.99437087 32.82047001 6.64777429 31.25425075 6.30178833 29.68789673 C4.49886072 21.5301043 2.65272876 13.40064311 0.5222168 5.3203125 C0 3 0 3 0 0 Z " fill="#030303" transform="translate(118,227)"/>
<path d="M0 0 C0.96873047 0.72316406 0.96873047 0.72316406 1.95703125 1.4609375 C2.87935547 2.06035156 2.87935547 2.06035156 3.8203125 2.671875 C14.87883947 10.7634801 19.70514592 25.50766612 21.95703125 38.4609375 C23.34029712 60.46186873 22.64912068 80.60302078 8.234375 98.61328125 C2.22683641 105.08609618 -5.9285442 108.94295207 -14.70703125 109.83203125 C-26.68173262 110.03279054 -36.37912492 107.95459228 -45.30859375 99.3203125 C-59.39975222 84.21357504 -61.68863935 66.29545204 -61.35546875 46.43359375 C-60.72394977 29.78517477 -54.97850082 15.25210656 -42.796875 3.75 C-32.00965071 -5.21640204 -12.16114771 -7.70986948 0 0 Z " fill="#020202" transform="translate(256.04296875,371.5390625)"/>
<path d="M0 0 C47.20589115 0 47.20589115 0 61.75 13.1875 C65.83239927 17.52986337 68.40686354 22.67932671 71 28 C71.5775 29.175625 72.155 30.35125 72.75 31.5625 C78.88755269 48.4407699 77.55363273 70.27905765 70.28515625 86.6953125 C62.68262467 100.32903175 53.77976908 104.72151104 39 110 C26.13 110 13.26 110 0 110 C0 73.7 0 37.4 0 0 Z " fill="#020202" transform="translate(352,227)"/>
<path d="M0 0 C51.8068609 0 51.8068609 0 61.29296875 8.24609375 C69.54296936 16.722639 73.02552328 24.11704637 73.4375 36 C73.29104707 42.41603303 72.0038396 47.35737076 69 53 C68.4225 54.093125 67.845 55.18625 67.25 56.3125 C64.32040188 59.81174219 60.96998576 61.82228936 57 64 C58.3027144 68.176201 59.88125035 71.98909552 61.86328125 75.88671875 C62.42080078 76.99080078 62.97832031 78.09488281 63.55273438 79.23242188 C64.13345703 80.37259766 64.71417969 81.51277344 65.3125 82.6875 C77 105.70512458 77 105.70512458 77 110 C66.77 110 56.54 110 46 110 C42.70162866 102.08390878 39.44235598 94.16943254 36.3125 86.1875 C35.92255859 85.20330078 35.53261719 84.21910156 35.13085938 83.20507812 C34.5652832 81.76358398 34.5652832 81.76358398 33.98828125 80.29296875 C33.48615112 79.01715942 33.48615112 79.01715942 32.97387695 77.71557617 C31.83056509 74.52754462 30.9304374 71.25653089 30 68 C29.67 81.86 29.34 95.72 29 110 C19.43 110 9.86 110 0 110 C0 73.7 0 37.4 0 0 Z " fill="#010101" transform="translate(126,85)"/>
<path d="M0 0 C10.89 0 21.78 0 33 0 C33.94875 2.660625 34.8975 5.32125 35.875 8.0625 C36.17003418 8.8862915 36.46506836 9.71008301 36.76904297 10.55883789 C38.34549539 15.00345444 39.75553672 19.45106382 41 24 C41.14099121 23.45061768 41.28198242 22.90123535 41.42724609 22.33520508 C42.07307317 19.82674079 42.72398903 17.31962371 43.375 14.8125 C43.70757812 13.51602539 43.70757812 13.51602539 44.046875 12.19335938 C44.37558594 10.93168945 44.37558594 10.93168945 44.7109375 9.64453125 C45.00943604 8.48981323 45.00943604 8.48981323 45.31396484 7.31176758 C46.05265884 4.82255283 47.03568077 2.41079807 48 0 C58.89 0 69.78 0 81 0 C79.41485891 4.75542327 77.62913111 9.13851735 75.48046875 13.63671875 C75.14002029 14.35680618 74.79957184 15.07689362 74.44880676 15.81880188 C73.36490305 18.1098995 72.27641215 20.39877916 71.1875 22.6875 C70.46776654 24.2049205 69.7483626 25.72249734 69.02929688 27.24023438 C68.67835968 27.98064972 68.32742249 28.72106506 67.96585083 29.48391724 C67.27115149 30.95256388 66.57815826 32.42201884 65.88693237 33.89230347 C64.40090853 37.0530045 62.90066792 40.19863496 61.33837891 43.32275391 C60.63914307 44.75047119 60.63914307 44.75047119 59.92578125 46.20703125 C59.52399658 47.00214111 59.12221191 47.79725098 58.70825195 48.61645508 C56.91341486 54.65678412 60.23108556 60.11511655 62.82421875 65.44140625 C63.20810257 66.24553452 63.59198639 67.04966278 63.98750305 67.87815857 C65.21376247 70.4430668 66.45028817 73.00285959 67.6875 75.5625 C68.50006368 77.25551653 69.31191929 78.94887309 70.12304688 80.64257812 C71.31032926 83.12115714 72.49770154 85.5996895 73.68649292 88.07754517 C76.00252973 92.90686859 78.31011921 97.73958194 80.58203125 102.58984375 C81.05487549 103.59781006 81.52771973 104.60577637 82.01489258 105.64428711 C83 108 83 108 83 110 C72.11 110 61.22 110 50 110 C47.03 101.09 44.06 92.18 41 83 C38.57466848 89.46401248 38.57466848 89.46401248 36.17578125 95.9375 C35.89903564 96.68902344 35.62229004 97.44054687 35.3371582 98.21484375 C34.999021 99.13394531 34.66088379 100.05304688 34.3125 101 C32.6728125 105.455 32.6728125 105.455 31 110 C20.11 110 9.22 110 -2 110 C2.46492701 99.89073129 6.97404356 89.80383896 11.5625 79.75 C12.26052734 78.21400146 12.26052734 78.21400146 12.97265625 76.64697266 C14.99367756 72.23132575 17.03309225 67.85104749 19.328125 63.5703125 C19.6677124 62.93254883 20.0072998 62.29478516 20.35717773 61.63769531 C21.23596985 60.0162082 22.14212931 58.40963227 23.05078125 56.8046875 C24.74140765 51.80933872 21.73693806 47.2239114 19.53125 42.68359375 C19.04688477 41.68142822 18.56251953 40.6792627 18.06347656 39.64672852 C17.5475293 38.58768311 17.03158203 37.5286377 16.5 36.4375 C15.42169503 34.20581612 14.34357331 31.97404368 13.265625 29.7421875 C12.17710757 27.49477993 11.08856632 25.24738389 10 23 C8.07709486 19.02380262 6.16103814 15.04441238 4.25 11.0625 C3.60514648 9.73206665 3.60514648 9.73206665 2.94726562 8.37475586 C2.55732422 7.56143799 2.16738281 6.74812012 1.765625 5.91015625 C1.42305664 5.19996338 1.08048828 4.48977051 0.72753906 3.75805664 C0 2 0 2 0 0 Z " fill="#020202" transform="translate(273,85)"/>
<path d="M0 0 C18.48 0 36.96 0 56 0 C56 8.58 56 17.16 56 26 C47.42 26 38.84 26 30 26 C30 31.28 30 36.56 30 42 C37.59 42 45.18 42 53 42 C53 50.25 53 58.5 53 67 C45.41 67 37.82 67 30 67 C30 72.28 30 77.56 30 83 C38.58 83 47.16 83 56 83 C56 91.91 56 100.82 56 110 C37.52 110 19.04 110 0 110 C0 73.7 0 37.4 0 0 Z " fill="#040404" transform="translate(212,85)"/>
<path d="M0 0 C0 10.23 0 20.46 0 31 C-2.97 29.35 -5.94 27.7 -9 26 C-15.81105358 25.17162862 -19.50759586 25.90762045 -25 30 C-31.14166342 37.46959064 -31.34227332 45.17799894 -31.3125 54.4375 C-31.32861328 55.43587891 -31.34472656 56.43425781 -31.36132812 57.46289062 C-31.36684072 65.84755489 -30.0701894 72.74586546 -24 79 C-19.11555603 82.06898692 -13.5614127 81.62520456 -8 81 C-5.31399875 79.93669486 -3.39348698 78.66503442 -1 77 C-0.34 77 0.32 77 1 77 C1.1132812 87.39669641 0.91987611 97.63496744 0 108 C-11.26994015 111.58589005 -24.61295391 113.67451017 -35.6953125 108.39453125 C-49.70112397 99.91982838 -57.8374054 88.71627817 -61.81494141 72.8737793 C-64.93702168 58.28786292 -64.68399985 41.87344699 -59 28 C-58.649375 27.10539062 -58.29875 26.21078125 -57.9375 25.2890625 C-52.96789859 14.07294821 -43.42688408 4.63892931 -32.25 -0.375 C-22.21759787 -3.76146485 -9.90755383 -3.30251794 0 0 Z " fill="#030303" transform="translate(186,370)"/>
<path d="M0 0 C9.9 0 19.8 0 30 0 C30 27.72 30 55.44 30 84 C37.26 84 44.52 84 52 84 C52 92.58 52 101.16 52 110 C34.84 110 17.68 110 0 110 C0 73.7 0 37.4 0 0 Z " fill="#020202" transform="translate(292,227)"/>
<path d="M0 0 C9.57 0 19.14 0 29 0 C29 36.3 29 72.6 29 110 C19.43 110 9.86 110 0 110 C0 73.7 0 37.4 0 0 Z " fill="#000000" transform="translate(249,227)"/>
<path d="M0 0 C5.62022792 4.81733821 7.05147794 10.83093789 8 18 C8.90415809 30.93339174 9.37056091 44.78310525 2 56 C0 58 0 58 -3.375 58.4375 C-7 58 -7 58 -9.25 56.125 C-13.9629581 47.70900339 -14.44893476 39.35994475 -14.3125 29.875 C-14.31572266 28.74707031 -14.31894531 27.61914062 -14.32226562 26.45703125 C-14.26255371 17.17454305 -13.17688151 9.84375986 -8 2 C-4.73201451 -0.178657 -3.79094962 -0.72208564 0 0 Z " fill="#F8F8F8" transform="translate(240,395)"/>
<path d="M0 0 C4.55271524 3.07470105 7.51372797 7.36120836 8.66796875 12.73828125 C8.99434176 17.84557775 7.74728069 21.60501377 4.8046875 25.76953125 C1.07748442 29.7578186 -3.03882296 31.28218001 -8.375 31.9375 C-13.90892722 31.23318199 -18.0424059 29.72153301 -21.6875 25.4375 C-25.62384769 19.99607819 -25.55565301 15.10392789 -24.8125 8.5 C-23.15017994 4.38719089 -20.6783391 2.12420958 -17.125 -0.4375 C-11.4149359 -2.26902999 -5.51030259 -2.70702638 0 0 Z " fill="#060606" transform="translate(312.8125,449.5)"/>
<path d="M0 0 C5.03189883 1.00637977 7.12538423 1.78489329 11 5 C15.87068106 12.50639771 16.20595403 19.44988092 16.25 28.1875 C16.270625 29.19103516 16.29125 30.19457031 16.3125 31.22851562 C16.35246402 38.90660279 15.32308128 45.31511246 11.1875 51.875 C7.84449912 55.12248657 4.70623669 57 0 57 C0 38.19 0 19.38 0 0 Z " fill="#F1F1F1" transform="translate(381,254)"/>
<path d="M0 0 C8.11111111 0 8.11111111 0 12 3 C15.12361595 7.68542393 14.833821 12.52363326 14 18 C12.04405376 21.54590253 9.63422023 24.18288988 6 26 C4.02 26 2.04 26 0 26 C0 17.42 0 8.84 0 0 Z " fill="#F0F0F0" transform="translate(155,110)"/>
<path d="M0 0 C0.66 0.66 1.32 1.32 2 2 C0.61559342 3.63474589 -0.78303245 5.25745662 -2.1875 6.875 C-2.96480469 7.77992188 -3.74210937 8.68484375 -4.54296875 9.6171875 C-6.99573203 11.99586095 -8.77053123 13.00190486 -12 14 C-10.58226538 10.45566346 -9.32387762 9.66193881 -6 8 C-5.29848848 6.6846659 -4.63474075 5.34882408 -4 4 C-2.70529025 2.62913085 -1.37849103 1.28659163 0 0 Z " fill="#111111" transform="translate(266,463)"/>
<path d="M0 0 C1.5625 1.6875 1.5625 1.6875 3 4 C2.6875 6.75 2.6875 6.75 2 9 C-0.475 8.01 -0.475 8.01 -3 7 C-3.33 7.66 -3.66 8.32 -4 9 C-5.65 8.67 -7.3 8.34 -9 8 C-9 7.67 -9 7.34 -9 7 C-7.6078125 6.6596875 -7.6078125 6.6596875 -6.1875 6.3125 C-2.49280817 4.7911563 -1.67517239 3.53647504 0 0 Z " fill="#191919" transform="translate(244,446)"/>
<path d="M0 0 C2.97 0.99 5.94 1.98 9 3 C8.67 3.66 8.34 4.32 8 5 C5.4375 5.625 5.4375 5.625 3 6 C2.67 5.34 2.34 4.68 2 4 C1.34 3.67 0.68 3.34 0 3 C0 2.01 0 1.02 0 0 Z " fill="#1B1B1B" transform="translate(246,368)"/>
<path d="M0 0 C0.33 0 0.66 0 1 0 C1.33 3.63 1.66 7.26 2 11 C1.01 10.67 0.02 10.34 -1 10 C-1.125 3.375 -1.125 3.375 0 0 Z " fill="#BFBFBF" transform="translate(180,271)"/>
<path d="M0 0 C0.99 0 1.98 0 3 0 C1.9024777 2.99324263 1.32317108 3.84610901 -1.625 5.25 C-2.40875 5.4975 -3.1925 5.745 -4 6 C-2.84826645 3.53199953 -1.95216435 1.95216435 0 0 Z " fill="#181818" transform="translate(258,471)"/>
</svg>
